<svg width="20" height="20" viewBox="0 0 20 20" fill="none" xmlns="http://www.w3.org/2000/svg">
<g clip-path="url(#clip0_28831_280)">
<path d="M19.6016 5.15459C19.4885 4.7291 19.2657 4.34077 18.9554 4.02847C18.6451 3.71617 18.2582 3.49084 17.8334 3.37504C16.2698 2.95459 10.0198 2.95459 10.0198 2.95459C10.0198 2.95459 3.76978 2.95459 2.20614 3.37504C1.78138 3.49084 1.39449 3.71617 1.08418 4.02847C0.773872 4.34077 0.55103 4.7291 0.437957 5.15459C0.0197754 6.72504 0.0197754 10 0.0197754 10C0.0197754 10 0.0197754 13.275 0.437957 14.8455C0.55103 15.271 0.773872 15.6593 1.08418 15.9716C1.39449 16.2839 1.78138 16.5092 2.20614 16.625C3.76978 17.0455 10.0198 17.0455 10.0198 17.0455C10.0198 17.0455 16.2698 17.0455 17.8334 16.625C18.2582 16.5092 18.6451 16.2839 18.9554 15.9716C19.2657 15.6593 19.4885 15.271 19.6016 14.8455C20.0198 13.275 20.0198 10 20.0198 10C20.0198 10 20.0198 6.72504 19.6016 5.15459Z" fill="black"/>
<path d="M7.97437 12.9741V7.02637L13.2016 10.0002L7.97437 12.9741Z" fill="#FEFEFE"/>
</g>
<defs>
<clipPath id="clip0_28831_280">
<rect width="20" height="20" fill="white"/>
</clipPath>
</defs>
</svg>
