<svg width="240" height="324" viewBox="0 0 240 324" fill="none" xmlns="http://www.w3.org/2000/svg">
<path fill-rule="evenodd" clip-rule="evenodd" d="M198.116 286.313C202.199 286.116 200.557 278.971 200.264 276.347C197.031 266.764 197.791 256.308 196.52 246.263C195.728 236.886 194.71 227.538 193.854 218.168C192.173 199.148 180.099 160.427 166.321 154.2C164.586 146.582 157.417 139.47 148.348 139.47C142.162 132.145 134.716 126.99 125.166 128.031C121.22 128.21 117.392 132.398 113.611 133.206C111.494 133.498 92.7034 132.747 88.9395 134.983C86.3176 136.33 83.9508 138.818 84.7217 141.987C85.9517 145.825 82.1292 141.672 74.1554 145.769C57.8955 155.538 67.6117 168.607 68.0423 169.012C57.8955 183.135 49.0268 194.593 44.9233 211.855C42.2639 224.671 42.5633 237.902 40.335 250.784C39.5483 255.25 38.3413 259.564 37.0352 263.902C35.6197 269.578 34.9315 283.727 34.1512 283.853C32.73 284.206 34.9726 287.126 36.4785 287.128C78.2301 294.056 120.64 287.415 162.615 286.33C174.445 285.918 186.287 285.824 198.116 286.313Z" fill="white"/>
<path fill-rule="evenodd" clip-rule="evenodd" d="M134.835 170.259C134.855 170.067 135.112 170.068 135.132 170.259L135.427 173.105C135.786 176.582 136.131 180.052 136.381 183.545C136.693 187.901 136.902 192.255 137.003 196.621C137.353 211.825 137.423 227.037 137.453 242.244C139.508 242.102 141.564 241.965 143.622 241.832C145.017 241.742 146.413 241.655 147.809 241.57L151.368 241.354L152.833 241.264C153.824 241.203 154.949 240.954 155.641 241.831C155.918 242.182 156.057 242.639 155.799 243.056C155.203 244.018 154.287 243.984 153.252 244.026C152.275 244.065 151.298 244.104 150.321 244.142C148.228 244.223 146.135 244.3 144.041 244.359C141.843 244.42 139.646 244.47 137.45 244.508C137.427 250.928 137.162 257.34 136.875 263.753L136.745 266.639C136.393 274.443 136.016 282.254 135.479 290.048C135.435 290.686 134.532 290.685 134.488 290.048C133.884 281.271 133.485 272.475 133.089 263.686C132.803 257.314 132.636 250.94 132.556 244.565C132.266 244.566 131.975 244.571 131.685 244.572C123.44 244.607 115.197 244.643 106.952 244.566C106.966 244.582 106.979 244.599 106.988 244.62C107.585 246.029 107.642 247.827 107.627 249.34C107.61 251.074 107.377 252.787 106.978 254.474C105.547 260.516 101.857 265.928 97.6545 270.402L97.5173 270.547C96.526 271.595 95.3888 272.648 94.7801 273.983C94.1584 275.345 93.9426 276.939 93.6358 278.404L93.6 278.572L92.4004 284.115C92.0193 285.876 91.9111 288.443 90.518 289.713C89.2183 290.899 87.4964 290.28 86.8848 288.754C86.4071 287.563 86.8829 286.255 87.1658 285.064L89.3822 275.744C89.7464 274.224 90.1444 272.694 90.9304 271.329C91.7355 269.93 92.9159 268.916 94.1203 267.879C96.4009 265.915 98.4946 263.666 100.265 261.231C102.035 258.797 103.548 256.114 104.609 253.293C105.14 251.881 105.575 250.414 105.875 248.935C106.161 247.531 106.158 246.077 106.463 244.689C106.484 244.593 106.565 244.527 106.658 244.498C106.636 244.436 106.67 244.352 106.756 244.347L113.499 243.913C119.493 243.527 125.487 243.13 131.476 242.677L132.534 242.6C132.452 234.094 132.522 225.587 132.675 217.078C132.816 209.275 132.819 201.47 133.051 193.668C133.166 189.796 133.415 185.933 133.692 182.069C133.975 178.117 134.428 174.199 134.835 170.259ZM71.5199 215.501C71.4481 215.068 71.993 214.8 72.2442 215.196C75.1155 219.724 76.4999 224.641 77.0835 229.94C77.599 234.616 77.4471 239.359 77.1904 244.048C76.9166 249.048 76.5971 254.048 76.2741 259.045L75.7778 266.71L74.5324 285.923C74.4433 287.298 74.1314 288.547 72.9485 289.186C72.7987 289.311 72.6426 289.424 72.4607 289.521C71.8216 289.863 70.974 289.69 70.6045 289.034L70.7527 289.131C70.8817 289.213 70.7368 289.099 70.3178 288.791L69.9623 288.331C69.7039 287.943 69.5389 287.561 69.4725 287.099C69.3694 286.381 69.503 285.594 69.5499 284.873L70.3662 272.274C71.0011 262.48 71.7424 252.688 72.3012 242.888C72.5615 238.321 72.7438 233.749 72.6204 229.174C72.4975 224.624 72.2657 219.997 71.5199 215.501ZM96.3595 131.161L96.5188 131.134C102.222 130.186 108.424 130.364 113.636 133.114C113.679 133.137 113.659 133.208 113.611 133.206L111.933 133.139C106.622 132.931 101.327 132.808 96.1054 134.056L95.5708 134.185C93.6901 134.644 91.7262 135.206 90.2156 136.448C88.7718 137.636 88.0529 139.468 87.3616 141.155L87.2692 141.378C86.5678 143.044 85.6801 144.624 84.1428 145.665C82.1516 147.014 79.7568 146.849 77.4737 147.032C73.4537 147.356 70.167 150.27 68.5318 153.837C67.5416 155.996 67.1192 158.417 67.0356 160.779C66.9927 161.981 66.9866 163.231 67.1467 164.425C67.1978 164.807 67.6698 166.198 67.9104 166.165C68.4451 166.091 68.934 166.37 69.1007 166.797C70.4216 165.521 71.7804 164.281 73.183 163.086C76.6793 160.107 80.4452 157.408 84.4111 155.088C87.4379 153.317 90.6306 151.563 93.9367 150.237C93.6747 150.231 93.4163 150.283 93.1664 150.413C93.057 150.47 92.9482 150.333 93.0346 150.242C94.0759 149.146 95.3232 148.99 96.5807 149.282C96.849 149.197 97.1175 149.114 97.3871 149.036C97.5213 148.997 97.588 149.182 97.4786 149.253L97.1697 149.451C98.5415 149.91 99.8883 150.814 100.955 151.527C104.018 153.575 106.714 156.078 109.446 158.535L109.943 158.98C112.349 161.129 114.816 163.217 117.549 164.941C118.98 165.843 120.482 166.678 122.059 167.298C123.411 167.831 125.612 168.167 126.245 169.596C126.808 170.28 126.573 171.153 125.914 171.613C124.802 172.837 122.578 172.046 121.253 171.537C119.656 170.922 118.109 170.183 116.634 169.317C113.769 167.635 111.128 165.543 108.668 163.318C106.098 160.994 103.674 158.525 101.175 156.128C100.092 155.089 99.0339 154.027 97.9494 152.99L97.4047 152.473C96.8511 151.954 96.0625 151.145 95.2193 150.655C93.6308 151.603 92.0178 152.511 90.4436 153.484C88.2462 154.841 86.1135 156.296 84.0137 157.799C79.9713 160.693 76.1406 163.934 72.5843 167.408C66.0621 173.778 60.5053 181.053 55.651 188.756L55.2824 189.343C52.5239 193.752 49.9153 198.303 48.0656 203.174C46.0305 208.535 45.0407 214.173 44.503 219.863C43.9694 225.513 43.7894 231.191 43.193 236.836C42.5813 242.625 41.3763 248.286 40.0056 253.937L39.6787 255.277C38.4384 260.337 37.1583 265.398 36.5207 270.578C36.1804 273.345 35.9756 276.15 36.0219 278.939C36.0684 281.745 36.5091 284.488 36.8647 287.265C37.0009 288.328 35.9547 289.216 35.0186 289.357C33.942 289.518 33.0171 288.831 32.6824 287.831C31.6392 284.712 31.4497 281.264 31.4824 277.991C31.5154 274.667 31.9394 271.365 32.536 268.099C33.7094 261.674 35.5201 255.383 37.0349 249.035C38.3699 243.44 39.2659 237.836 39.7489 232.104C40.2502 226.157 40.5504 220.191 41.465 214.287C42.3678 208.459 44.0663 202.892 46.628 197.578C48.9604 192.739 51.8678 188.185 54.916 183.77C58.6176 178.41 62.683 173.309 67.2274 168.661C66.8192 168.644 66.4001 168.512 66.0152 168.272C64.8375 167.537 64.2891 166.099 64.1205 164.787C63.7259 161.717 63.8211 158.511 64.6104 155.509C65.8837 150.667 69.1884 146.364 73.9778 144.619C75.2106 144.169 76.5211 144.005 77.8275 143.973C79.0673 143.942 80.4213 144.104 81.6175 143.711C83.5215 143.085 84.3376 140.841 85.0525 139.141L85.0854 139.063C86.0021 136.896 87.1024 135.038 89.0879 133.685C91.2062 132.242 93.8603 131.585 96.3595 131.161ZM150.549 139.731C152.263 139.136 154.406 139.676 156.082 140.195C157.949 140.774 159.674 141.841 161.153 143.108C162.714 144.443 164.004 146.093 164.915 147.935L165.002 148.113C165.835 149.822 166.782 152.168 166.363 154.046C166.351 154.099 166.337 154.151 166.321 154.2C169.722 155.875 172.862 157.972 175.597 160.631C178.781 163.726 181.477 167.248 183.759 171.053C192.821 186.166 194.416 204.317 195.486 221.552L195.753 225.922C196.334 235.359 197.014 244.773 198.781 254.08L198.91 254.751C200.798 264.495 203.501 274.313 203.228 284.309C203.145 287.304 198.721 287.283 198.593 284.309C198.11 273.113 195.498 262.303 193.73 251.283C190.618 231.893 192.177 211.904 187.768 192.708C186.038 185.175 183.357 177.868 179.53 171.144C177.639 167.822 175.476 164.613 172.942 161.747C170.762 159.281 168.496 156.908 165.948 154.835C165.134 155.651 163.508 155.235 163.083 154.046C162.791 153.229 162.876 152.273 162.688 151.417C162.514 150.622 162.275 149.835 161.955 149.087C161.318 147.596 160.384 146.164 159.305 144.957C158.139 143.652 156.8 142.569 155.301 141.674C153.791 140.773 152.141 140.504 150.549 139.845C150.495 139.823 150.49 139.751 150.549 139.731ZM157.208 243.355C157.21 243.276 157.303 243.239 157.36 243.292C157.961 243.845 158.324 244.638 158.766 245.319C159.276 246.103 159.812 246.872 160.373 247.62C161.498 249.12 162.751 250.534 164.013 251.919C165.188 253.207 166.439 254.44 167.738 255.603C169.144 256.863 170.72 257.988 171.998 259.383C174.665 262.294 175.096 266.291 175.658 270.043L175.72 270.449C176.063 272.675 176.371 274.908 176.648 277.144C176.782 278.232 176.917 279.32 177.027 280.411L177.06 280.756C177.158 281.823 177.185 282.906 176.572 283.839C175.916 284.837 174.425 285.187 173.538 284.23C172.014 282.586 172.3 279.667 172.102 277.552C171.938 275.804 171.752 274.057 171.544 272.313L171.439 271.442C171.194 269.458 170.995 267.435 170.541 265.485C170.141 263.769 169.379 262.473 168.129 261.23C166.869 259.977 165.56 258.808 164.398 257.459C163.165 256.028 162.052 254.494 161.05 252.892C160.193 251.523 159.506 250.032 158.876 248.544L158.772 248.296C158.163 246.844 157.16 244.954 157.208 243.355ZM179.203 180.997C179.216 180.795 179.516 180.791 179.52 180.997C179.558 182.739 179.594 184.48 179.63 186.222C179.921 200.256 179.742 214.323 181.149 228.309C181.813 234.903 183.035 241.401 184.45 247.871C185.174 251.182 185.933 254.485 186.654 257.796C187.358 261.023 188.112 264.266 188.669 267.523C189.217 270.724 189.708 273.95 189.929 277.192L189.956 277.615C190.051 279.186 190.503 281.496 189.639 282.888C188.702 284.396 186.909 284.423 185.905 282.984C184.962 281.632 185.197 279.228 185.03 277.615C184.861 275.973 184.682 274.328 184.479 272.689C184.082 269.492 183.56 266.302 183.016 263.127C181.885 256.514 180.243 249.985 179.032 243.383C177.79 236.618 176.907 229.804 176.87 222.916C176.833 215.97 177.568 209.037 177.939 202.106C178.316 195.066 178.744 188.032 179.203 180.997ZM112.933 137.346C113.309 136.077 114.639 135.284 115.935 135.64C117.124 135.967 118.105 137.41 117.64 138.645C117.133 139.992 116.247 141.14 115.5 142.365C114.81 143.496 113.804 144.387 113.101 145.498L113.875 146.334C114.263 146.75 114.651 147.165 115.044 147.572L116.395 148.972C117.448 150.059 118.506 151.142 119.595 152.192C122.796 155.281 126.048 158.268 129.633 160.913C130.449 161.515 131.271 162.114 132.117 162.674L132.432 162.883C133.012 163.263 133.659 163.637 134.36 163.572C136.063 163.416 137.601 161.607 138.771 160.481L138.833 160.423C141.732 157.663 144.417 154.645 146.765 151.4C147.286 150.679 147.791 149.946 148.282 149.204C147.147 147.878 147.418 145.289 147.356 143.681C147.312 142.55 147.308 141.419 147.302 140.287L147.299 140.059C147.285 139.326 147.252 138.624 147.727 138.021C147.755 137.986 147.812 137.987 147.848 138.005C148.498 138.347 148.699 138.918 148.977 139.559L149.006 139.625C149.344 140.394 149.667 141.171 149.995 141.944C150.338 142.754 150.652 143.576 150.971 144.395C151.119 144.777 151.261 145.159 151.399 145.544C151.483 145.79 151.57 146.035 151.66 146.279L151.681 146.298C151.799 146.398 151.9 146.504 151.986 146.614C152.349 146.795 152.638 147.126 152.773 147.613C153.068 148.672 152.458 149.536 151.914 150.376C149.704 153.792 147.185 157.046 144.385 159.999C142.994 161.465 141.531 162.866 140.008 164.195L139.741 164.426C138.373 165.602 136.888 166.716 135.06 166.992C132.922 167.313 131.181 166.249 129.544 165.024L129.381 164.901C127.829 163.726 126.308 162.509 124.835 161.236C121.831 158.642 118.973 155.856 116.436 152.8C113.969 149.827 111.531 146.503 110.01 142.926C109.917 142.708 110.161 142.48 110.352 142.662C111.095 143.369 111.809 144.115 112.516 144.87C112.535 143.758 112.33 142.637 112.444 141.518C112.584 140.158 112.543 138.656 112.933 137.346Z" fill="black"/>
<path fill-rule="evenodd" clip-rule="evenodd" d="M166.991 109.396C165.666 99.8335 162.636 90.5493 162.201 80.8437C161.942 76.6905 161.683 72.537 161.425 68.3833C161.327 65.7892 157.958 64.914 156.671 67.2122C153.747 63.9676 148.51 64.4455 144.515 64.5439C120.995 65.3777 98.6438 81.2861 90.57 103.467C90.3759 103.996 90.4346 104.559 90.6541 105.062C86.8908 117.617 100.2 125.7 109.277 131.298C112.959 135.191 117.287 138.425 122.174 140.64C127.796 143.285 134.054 144.761 140.266 144.902C141.629 144.933 142.448 143.83 142.547 142.689C144.529 142.227 147.92 142.76 148.968 140.729C160.918 135.536 168.705 122.375 166.991 109.396Z" fill="white"/>
<path fill-rule="evenodd" clip-rule="evenodd" d="M161.399 75.4847C161.366 75.1746 161.813 75.1651 161.905 75.4162C162.663 77.4805 163.448 79.5306 164.048 81.647C164.626 83.6868 165.043 85.7728 165.465 87.8499C166.165 91.2971 166.766 94.7696 167.264 98.2532C168.328 97.4222 169.719 97.3465 171.029 97.9933C171.644 98.2966 171.879 99.0986 171.732 99.7209C171.613 100.22 171.469 100.717 171.295 101.203C171.666 101.532 171.982 101.937 172.211 102.403C172.814 103.629 172.619 104.915 172.078 106.085C172.12 106.154 172.16 106.225 172.199 106.299C172.982 107.82 172.563 109.183 171.991 110.668C171.562 111.778 171.801 113.029 170.877 113.868C170.556 114.9 170.074 115.861 169.372 116.728C169.213 117.02 168.974 117.255 168.691 117.428C168.619 119.057 168.447 120.682 168.124 122.292C166.868 128.543 162.882 134.113 157.947 138.042C153.118 141.886 147.447 144.183 141.328 144.926C138.357 145.287 135.381 145.173 132.434 144.658L132.067 144.593C129.348 144.099 126.057 143.282 124.177 141.23C123.188 140.151 123.766 137.776 125.514 138C126.441 138.119 127.247 138.267 128.119 138.609C128.799 138.876 129.48 139.133 130.179 139.351C131.516 139.767 132.899 140.092 134.288 140.272C137.181 140.646 140.187 140.547 143.047 139.982C148.247 138.956 153.299 136.589 157.245 133.025C161.832 128.881 164.521 123.519 164.917 117.335C165.358 110.447 164.563 103.394 163.903 96.5415C163.559 92.9771 163.124 89.4199 162.599 85.8776C162.086 82.4166 161.779 78.9603 161.399 75.4847ZM120.803 53.2433L121.025 53.2091C129.856 51.8647 139.148 51.9601 147.448 55.6059C149.039 56.3052 150.596 57.1485 152.062 58.1271C153.113 58.0174 154.169 57.9284 155.206 57.9138C156.512 57.8967 157.786 58.5751 157.946 59.8961C159.169 60.0482 160.296 60.4984 161.016 61.399C161.297 61.7496 161.485 62.1554 161.58 62.5781C162.332 62.7558 163.069 63.0283 163.769 63.3876C164.618 63.8251 165.108 65.0424 164.808 65.943C164.739 66.1474 164.66 66.3466 164.572 66.5414L164.504 66.6867L164.544 66.7417C165.222 67.8323 164.751 69.2631 163.712 69.9141C162.932 70.4023 162.062 70.7912 161.166 70.9793C161.24 71.3386 161.308 71.7 161.362 72.0656C161.384 72.2138 161.194 72.3194 161.109 72.1734C161.323 72.8399 161.591 73.5402 161.914 74.2744C162.104 74.7075 161.496 75.0921 161.263 74.6546C160.646 73.488 160.264 72.2918 159.704 71.0892C159.187 71.0554 158.671 70.937 158.174 70.7109C157.849 70.5629 157.602 70.3135 157.425 70.0155C157.414 70.0282 157.408 70.043 157.397 70.0578C155.73 72.203 152.472 72.9554 149.954 73.6338C147.25 74.3632 144.482 74.8132 141.704 75.145C136.853 75.722 131.965 75.8298 127.091 76.054C126.768 76.0686 126.446 76.0849 126.123 76.1005C124.144 77.8378 121.594 78.9174 118.979 79.2456C117.653 79.4117 116.086 79.3695 114.6 79.0309C114.062 79.5804 113.382 79.9874 112.64 80.1965C112.507 82.9649 110.964 85.5861 108.631 87.114L108.672 87.2785C109.252 89.6426 109.244 92.2267 107.166 93.8698C106.885 94.0921 106.577 94.2828 106.254 94.4408L106.325 94.6041C107.398 97.1137 107.741 99.8859 105.723 101.968C104.905 102.812 103.469 102.612 102.855 101.644L102.825 101.595C102.791 101.537 102.755 101.482 102.719 101.425C102.665 101.537 102.581 101.631 102.457 101.684C101.69 102.014 101.384 101.771 100.684 101.431C100.038 101.114 99.3554 100.877 98.6584 100.693C98.0899 100.545 97.5237 100.439 96.9533 100.378C93.3491 101.756 91.0209 105.983 91.5744 109.95C91.8744 112.11 93.0598 114.249 95.1258 115.145C96.03 115.538 97.0927 115.703 98.0709 115.57C99.3955 115.39 100.414 114.556 101.785 115.033C102.326 115.221 102.664 115.646 102.693 116.227C102.742 117.14 102.419 117.825 101.874 118.332C102.835 119.135 103.61 120.251 104.445 121.141C105.489 122.255 106.547 123.369 107.675 124.396C108.74 125.37 109.873 126.275 111.072 127.078L111.198 127.161C112.702 128.141 114.596 129.01 114.668 131.058C114.691 131.675 114.317 132.241 113.81 132.556C111.915 133.731 109.853 132.188 108.368 131.058C107.77 130.603 107.189 130.132 106.629 129.644C106.255 129.673 105.848 129.612 105.423 129.424C105.15 129.306 104.884 129.166 104.622 129.018C103.771 129.232 102.968 129.044 102.307 128.598C101.354 128.832 100.344 128.86 99.4864 128.672C98.7028 128.498 98.0033 128.128 97.4265 127.632C96.2223 128.016 94.885 127.945 93.6977 127.215C92.9857 126.778 92.43 126.154 92.1279 125.425C91.9741 125.184 91.8757 124.903 91.8683 124.594L91.8681 124.476C90.8329 124.5 89.7955 124.144 88.9948 123.325C88.2596 122.572 87.9007 121.634 87.8603 120.68C86.8188 120.385 85.866 119.778 85.1413 118.842C83.9413 117.29 83.781 115.373 84.3979 113.661C84.3575 113.571 84.3216 113.478 84.2899 113.385C83.3329 112.034 82.7012 110.405 82.7519 108.771C82.7582 108.517 82.792 108.268 82.8427 108.021C81.9005 107.52 81.2075 106.64 81.1336 105.522C81.0765 104.645 81.3913 103.787 81.9596 103.138C81.6829 102.477 81.5603 101.758 81.6448 101.04C81.7315 100.302 81.9913 99.6616 82.3718 99.1271C82.3631 98.9327 82.3737 98.7359 82.4054 98.5351C82.3674 98.3386 82.3357 98.1357 82.319 97.9288C82.1392 95.6629 83.7026 93.6804 85.6061 92.6342C86.1068 92.3595 86.6477 92.1354 87.1885 91.9452C87.5815 91.8057 88.173 91.7592 88.5195 91.5035C88.5047 91.4929 88.6484 91.3071 88.6737 91.2076C88.7012 91.085 88.7308 90.9646 88.7458 90.8399C88.8026 90.3157 88.7603 89.7768 88.7498 89.2505C88.7033 86.8622 88.7772 84.4634 89.0286 82.0878C89.4955 77.6833 90.6472 73.3739 92.8906 69.5252C94.773 66.3 97.3505 63.5757 100.306 61.3163C106.193 56.8182 113.54 54.3725 120.803 53.2433ZM93.5199 108.018C92.7536 106.176 96.3614 106.158 97.3154 106.245L97.3434 106.248C99.4905 106.462 102.847 107.495 103.726 109.662C104.089 110.559 103.013 111.532 102.152 111.237C101.309 110.948 100.836 110.328 100.159 109.785C99.9815 109.643 99.7965 109.51 99.608 109.382C99.7073 109.698 99.8661 109.99 100.087 110.208L100.139 110.257C101.178 111.191 99.3194 112.658 98.6298 111.422C98.2627 110.764 98.1156 110.042 98.2301 109.295C98.2641 109.074 98.3233 108.873 98.4093 108.68C98.3408 108.646 98.2734 108.609 98.2041 108.576L98.0804 108.518C97.2535 108.143 93.7248 106.669 93.7534 107.987C93.7565 108.133 93.5675 108.133 93.5199 108.018Z" fill="black"/>
<path fill-rule="evenodd" clip-rule="evenodd" d="M143.152 128.274C141.732 127.695 140.465 126.728 139.538 125.493C139.216 125.063 139.133 124.61 139.2 124.195C139.276 123.729 139.552 123.306 139.928 123.023C140.305 122.739 140.777 122.598 141.233 122.67C141.63 122.732 142.024 122.949 142.337 123.399L142.402 123.489C142.953 124.235 143.67 124.846 144.488 125.241C145.276 125.621 146.158 125.798 147.07 125.695C148.808 125.499 150.005 124.559 151.278 123.282C151.436 123.121 151.594 122.955 151.752 122.786C151.852 122.633 151.991 122.534 152.146 122.483C152.317 122.425 152.511 122.429 152.689 122.491C152.86 122.55 153.013 122.664 153.116 122.815C153.213 122.958 153.269 123.135 153.251 123.339C153.134 124.661 152.443 125.842 151.461 126.769C150.37 127.799 148.924 128.511 147.563 128.761C146.064 129.036 144.536 128.839 143.152 128.274ZM148.271 107.866C149.866 108.836 152.297 111.098 150.581 113.503C148.56 115.624 145.652 113.193 144.219 112.093C142.89 111.241 141.396 113.433 142.629 114.428C152.987 122.099 157.19 108.12 149.078 106.726C148.184 106.572 147.853 107.566 148.271 107.866ZM129.711 98.9429C129.887 96.7541 133.219 96.257 133.551 98.423C133.847 100.363 133.498 102.145 132.624 103.892C131.79 105.561 129.692 104.783 129.533 103.263C129.32 101.226 129.601 100.304 129.711 98.9429ZM155.076 97.9739C155.541 97.3652 156.212 96.9497 157.015 97.1845C159.526 97.9185 158.786 101.485 157.904 103.22C157.425 104.163 155.876 104.402 155.176 103.572C154.035 102.219 153.489 99.5157 154.94 98.1825C154.979 98.1136 155.023 98.044 155.076 97.9739ZM132.589 89.3654L132.986 89.2959C134.213 89.0836 135.738 88.8796 136.606 89.8665C137.067 90.3898 137.225 91.3624 136.606 91.8633C135.518 92.7446 134.314 92.4031 133.01 92.4777C131.935 92.5394 130.902 92.7174 129.867 93.0135C127.595 93.663 125.744 94.8486 123.804 96.1505C123.55 96.3213 123.29 95.9956 123.411 95.7574C124.531 93.563 126.701 91.7604 128.875 90.6616C130.036 90.0751 131.305 89.5885 132.589 89.3654ZM152.787 88.3823L153.091 88.4445C156.395 89.1353 160.687 90.5153 162.251 93.7615C162.311 94.2205 162.248 94.3189 162.197 94.3832L162.18 94.4046C162.137 94.4595 162.104 94.5351 161.905 94.5976C161.85 94.5844 161.794 94.5705 161.737 94.5557C161.02 94.3677 160.453 94.1087 159.904 93.84L159.308 93.5465C158.617 93.2076 157.92 92.881 157.181 92.6399C155.605 92.1255 153.983 91.7631 152.337 91.5696C151.98 91.5277 151.636 91.4072 151.365 91.2007C151.108 91.0046 150.911 90.7332 150.821 90.3724C150.705 89.9056 150.739 89.5521 150.989 89.1309C151.177 88.8146 151.447 88.5953 151.756 88.4694C152.071 88.3411 152.43 88.3108 152.787 88.3823Z" fill="black"/>
<path fill-rule="evenodd" clip-rule="evenodd" d="M148.851 138.659C142.599 139.578 138.073 139.388 135.275 138.089C131.089 136.147 127.018 134.268 123.222 131.695C119.332 129.059 116.032 125.929 113.677 121.923C111.486 118.195 109.665 114.239 107.831 110.314C107.724 110.085 106.671 107.804 106.299 107.04C105.727 105.854 104.053 106.226 104.053 108.067C104.053 109.907 103.971 123.846 107.187 129.329C110.087 134.281 115.004 137.742 119.888 140.762C125.292 144.101 132.471 147.711 138.919 148.665C144.754 149.528 151.413 147.105 155.639 143.113C160.056 138.938 161.307 133.265 163.587 127.833C164.096 126.619 162.291 125.886 161.761 127.081C161.097 128.58 156.793 132.439 148.851 138.659Z" fill="black"/>
</svg>
