<svg width="31" height="19" viewBox="0 0 31 19" fill="none" xmlns="http://www.w3.org/2000/svg">
<path fill-rule="evenodd" clip-rule="evenodd" d="M16.3961 2.8266C15.5487 2.46671 14.5513 2.46671 13.7039 2.82659L4.87028 6.57821L13.7039 10.3298C14.5513 10.6897 15.5487 10.6897 16.3961 10.3298L25.2297 6.57821L16.3961 2.8266ZM12.3578 0.539831C14.0526 -0.179945 16.0474 -0.179943 17.7422 0.539832L29.2681 5.43482C29.7779 5.65136 30.1 6.09401 30.1 6.57821C30.1 7.0624 29.7779 7.50505 29.2681 7.72159L17.7422 12.6166C16.0474 13.3364 14.0526 13.3364 12.3578 12.6166L0.831943 7.72159C0.322074 7.50505 0 7.06241 0 6.57821C0 6.09401 0.322074 5.65136 0.831944 5.43482L12.3578 0.539831ZM4.41965 11.5002C4.56085 11.1792 4.55072 10.8113 4.35611 10.4807C3.98439 9.8492 3.08038 9.59325 2.33694 9.90898L0.831944 10.5482C0.322074 10.7647 0 11.2073 0 11.6915C0 12.1757 0.322074 12.6184 0.831944 12.8349L13.0308 18.0158C14.3019 18.5556 15.7981 18.5556 17.0692 18.0158L29.2681 12.8349C29.7779 12.6184 30.1 12.1757 30.1 11.6915C30.1 11.2073 29.7779 10.7647 29.2681 10.5482L27.7631 9.90898C27.0196 9.59325 26.1156 9.8492 25.7439 10.4807C25.5493 10.8113 25.5392 11.1792 25.6803 11.5002L15.7231 15.729C15.2994 15.9089 14.8006 15.9089 14.3769 15.729L4.41965 11.5002Z" fill="black"/>
</svg>
