<svg width="31" height="19" viewBox="0 0 31 19" fill="none" xmlns="http://www.w3.org/2000/svg">
<path fill-rule="evenodd" clip-rule="evenodd" d="M15.05 0C15.8812 0 16.555 0.41236 16.555 0.921031V2.76309C16.555 3.27177 15.8812 3.68413 15.05 3.68413C14.2188 3.68413 13.545 3.27177 13.545 2.76309V0.921031C13.545 0.41236 14.2188 0 15.05 0ZM25.692 2.69764C26.2797 3.05732 26.2797 3.64049 25.692 4.00017L23.5636 5.30271C22.9758 5.66239 22.0229 5.66239 21.4352 5.30271C20.8474 4.94302 20.8474 4.35986 21.4352 4.00017L23.5636 2.69764C24.1513 2.33795 25.1042 2.33795 25.692 2.69764ZM4.40804 2.69764C4.99578 2.33795 5.94869 2.33795 6.53643 2.69764L8.66483 4.00017C9.25256 4.35986 9.25256 4.94302 8.66483 5.30271C8.07709 5.66239 7.12417 5.66239 6.53643 5.30271L4.40804 4.00017C3.8203 3.64049 3.8203 3.05732 4.40804 2.69764ZM15.05 6.90773C12.972 6.90773 11.2875 7.93863 11.2875 9.21031C11.2875 10.482 12.972 11.5129 15.05 11.5129C17.128 11.5129 18.8125 10.482 18.8125 9.21031C18.8125 7.93863 17.128 6.90773 15.05 6.90773ZM8.2775 9.21031C8.2775 6.92129 11.3097 5.06567 15.05 5.06567C18.7903 5.06567 21.8225 6.92129 21.8225 9.21031C21.8225 11.4993 18.7903 13.355 15.05 13.355C11.3097 13.355 8.2775 11.4993 8.2775 9.21031ZM0 9.21031C0 8.70164 0.673811 8.28928 1.505 8.28928H4.515C5.34619 8.28928 6.02 8.70164 6.02 9.21031C6.02 9.71898 5.34619 10.1313 4.515 10.1313H1.505C0.673811 10.1313 0 9.71898 0 9.21031ZM24.08 9.21031C24.08 8.70164 24.7538 8.28928 25.585 8.28928H28.595C29.4262 8.28928 30.1 8.70164 30.1 9.21031C30.1 9.71898 29.4262 10.1313 28.595 10.1313H25.585C24.7538 10.1313 24.08 9.71898 24.08 9.21031ZM8.66483 13.1179C9.25257 13.4776 9.25257 14.0608 8.66483 14.4205L6.53643 15.723C5.9487 16.0827 4.99578 16.0827 4.40804 15.723C3.8203 15.3633 3.8203 14.7801 4.40804 14.4205L6.53644 13.1179C7.12417 12.7582 8.07709 12.7582 8.66483 13.1179ZM21.4352 13.1179C22.0229 12.7582 22.9758 12.7582 23.5636 13.1179L25.692 14.4205C26.2797 14.7801 26.2797 15.3633 25.692 15.723C25.1042 16.0827 24.1513 16.0827 23.5636 15.723L21.4352 14.4205C20.8474 14.0608 20.8474 13.4776 21.4352 13.1179ZM15.05 14.7365C15.8812 14.7365 16.555 15.1489 16.555 15.6575V17.4996C16.555 18.0083 15.8812 18.4206 15.05 18.4206C14.2188 18.4206 13.545 18.0083 13.545 17.4996V15.6575C13.545 15.1489 14.2188 14.7365 15.05 14.7365Z" fill="black"/>
</svg>
