<svg width="31" height="31" viewBox="0 0 31 31" fill="none" xmlns="http://www.w3.org/2000/svg">
<path fill-rule="evenodd" clip-rule="evenodd" d="M21.7681 12.4517C21.7681 7.30641 17.597 3.13532 12.4517 3.13532C7.30642 3.13532 3.13532 7.30641 3.13532 12.4517C3.13532 17.597 7.30642 21.7681 12.4517 21.7681C14.5717 21.7681 16.5276 21.0589 18.0929 19.8665L24.8229 26.5965C25.3126 27.0862 26.1067 27.0862 26.5965 26.5965C27.0862 26.1067 27.0862 25.3126 26.5965 24.8229L19.8665 18.0929C21.0589 16.5276 21.7681 14.5717 21.7681 12.4517ZM12.4517 5.64358C16.2117 5.64358 19.2599 8.69169 19.2599 12.4517C19.2599 14.3321 18.4992 16.0324 17.2658 17.2658C16.0324 18.4992 14.3321 19.2599 12.4517 19.2599C8.69169 19.2599 5.64358 16.2117 5.64358 12.4517C5.64358 8.69169 8.69169 5.64358 12.4517 5.64358Z" fill="black"/>
</svg>
