<svg width="240" height="324" viewBox="0 0 240 324" fill="none" xmlns="http://www.w3.org/2000/svg">
<path fill-rule="evenodd" clip-rule="evenodd" d="M234.637 294.771C238.72 294.574 237.078 287.43 236.785 284.806C233.552 275.222 234.312 264.766 233.041 254.721C232.249 245.344 231.231 235.996 230.375 226.626C228.694 207.606 216.62 168.886 202.842 162.658C201.107 155.04 193.938 147.928 184.869 147.928C178.683 140.603 171.237 135.448 161.687 136.489C157.741 136.669 153.913 140.856 150.132 141.664C148.015 141.956 129.224 141.205 125.46 143.441C122.839 144.788 120.472 147.276 121.243 150.445C122.473 154.283 118.65 150.13 110.676 154.227C94.4165 163.996 104.133 177.065 104.563 177.47C94.4165 191.593 85.5478 203.051 81.4443 220.314C78.7849 233.13 79.0842 246.36 76.856 259.242C76.0692 263.708 74.8623 268.022 73.5562 272.36C72.1407 278.036 71.4525 292.185 70.6722 292.311C69.251 292.665 71.4936 295.584 72.9995 295.586C114.751 302.514 157.161 295.873 199.136 294.788C210.966 294.377 222.808 294.282 234.637 294.771Z" fill="white"/>
<path fill-rule="evenodd" clip-rule="evenodd" d="M171.356 178.717C171.376 178.526 171.633 178.526 171.653 178.717L171.948 181.564C172.307 185.04 172.652 188.51 172.902 192.003C173.214 196.359 173.423 200.714 173.524 205.079C173.874 220.283 173.944 235.495 173.974 250.703C176.029 250.56 178.085 250.423 180.143 250.29C181.538 250.2 182.934 250.113 184.33 250.028L187.889 249.812L189.354 249.722C190.345 249.661 191.47 249.412 192.162 250.289C192.439 250.641 192.578 251.097 192.32 251.514C191.724 252.476 190.808 252.442 189.773 252.484C188.796 252.524 187.819 252.562 186.842 252.6C184.749 252.681 182.656 252.758 180.562 252.817C178.364 252.878 176.167 252.928 173.971 252.966C173.948 259.386 173.683 265.798 173.396 272.211L173.266 275.097C172.914 282.901 172.537 290.712 172 298.506C171.956 299.144 171.053 299.143 171.009 298.506C170.405 289.729 170.006 280.933 169.61 272.144C169.324 265.772 169.157 259.398 169.077 253.023C168.787 253.025 168.496 253.029 168.206 253.03C159.961 253.066 151.718 253.102 143.473 253.024C143.487 253.04 143.5 253.057 143.509 253.078C144.106 254.487 144.163 256.286 144.148 257.798C144.131 259.532 143.898 261.245 143.499 262.932C142.068 268.974 138.378 274.386 134.175 278.86L134.038 279.005C133.047 280.053 131.91 281.106 131.301 282.441C130.679 283.804 130.464 285.398 130.157 286.862L130.121 287.03L128.921 292.573C128.54 294.334 128.432 296.901 127.039 298.172C125.739 299.357 124.017 298.738 123.406 297.212C122.928 296.021 123.404 294.713 123.687 293.522L125.903 284.202C126.267 282.682 126.665 281.152 127.451 279.787C128.257 278.388 129.437 277.374 130.641 276.337C132.922 274.373 135.016 272.124 136.786 269.689C138.556 267.255 140.069 264.572 141.13 261.751C141.661 260.339 142.096 258.872 142.396 257.393C142.682 255.989 142.679 254.536 142.984 253.147C143.005 253.051 143.086 252.985 143.179 252.956C143.157 252.894 143.191 252.811 143.277 252.805L150.02 252.372C156.014 251.985 162.008 251.588 167.997 251.135L169.055 251.058C168.973 242.552 169.043 234.045 169.196 225.536C169.337 217.733 169.34 209.928 169.572 202.126C169.687 198.254 169.936 194.391 170.213 190.527C170.496 186.575 170.949 182.657 171.356 178.717ZM108.041 223.96C107.969 223.526 108.514 223.258 108.765 223.654C111.636 228.182 113.021 233.1 113.604 238.398C114.12 243.074 113.968 247.818 113.711 252.506C113.438 257.507 113.118 262.506 112.795 267.504L112.299 275.168L111.053 294.381C110.964 295.756 110.652 297.006 109.47 297.644C109.32 297.77 109.164 297.882 108.982 297.979C108.343 298.321 107.495 298.148 107.126 297.492L107.274 297.59C107.403 297.671 107.258 297.557 106.839 297.249L106.483 296.789C106.225 296.401 106.06 296.019 105.994 295.557C105.89 294.839 106.024 294.052 106.071 293.331L106.887 280.732C107.522 270.938 108.263 261.146 108.822 251.346C109.082 246.779 109.265 242.207 109.141 237.632C109.018 233.082 108.787 228.455 108.041 223.96ZM132.881 139.619L133.04 139.592C138.743 138.645 144.945 138.822 150.157 141.572C150.2 141.595 150.18 141.667 150.132 141.664L148.454 141.597C143.143 141.389 137.848 141.266 132.626 142.514L132.092 142.643C130.211 143.102 128.247 143.664 126.737 144.907C125.293 146.094 124.574 147.926 123.883 149.613L123.79 149.836C123.089 151.502 122.201 153.082 120.664 154.123C118.673 155.473 116.278 155.307 113.995 155.491C109.975 155.814 106.688 158.728 105.053 162.295C104.063 164.454 103.64 166.876 103.557 169.237C103.514 170.44 103.508 171.689 103.668 172.883C103.719 173.265 104.191 174.656 104.431 174.623C104.966 174.549 105.455 174.828 105.622 175.255C106.943 173.979 108.301 172.739 109.704 171.544C113.2 168.565 116.966 165.866 120.932 163.546C123.959 161.775 127.152 160.021 130.458 158.695C130.196 158.689 129.937 158.741 129.687 158.871C129.578 158.929 129.469 158.791 129.556 158.7C130.597 157.604 131.844 157.448 133.102 157.741C133.37 157.655 133.639 157.573 133.908 157.494C134.042 157.455 134.109 157.64 134 157.711L133.691 157.909C135.062 158.368 136.409 159.272 137.476 159.985C140.539 162.033 143.235 164.536 145.967 166.993L146.464 167.438C148.87 169.587 151.337 171.675 154.07 173.399C155.501 174.301 157.003 175.136 158.58 175.756C159.932 176.289 162.133 176.625 162.766 178.054C163.329 178.738 163.094 179.611 162.435 180.071C161.323 181.295 159.099 180.504 157.774 179.995C156.177 179.38 154.63 178.641 153.155 177.775C150.29 176.093 147.649 174.001 145.189 171.776C142.619 169.452 140.195 166.983 137.696 164.586C136.613 163.548 135.555 162.485 134.47 161.448L133.926 160.932C133.372 160.412 132.583 159.603 131.74 159.113C130.152 160.061 128.539 160.97 126.965 161.942C124.767 163.299 122.634 164.754 120.535 166.258C116.492 169.151 112.662 172.392 109.105 175.866C102.583 182.236 97.0263 189.511 92.172 197.214L91.8034 197.801C89.0449 202.21 86.4363 206.761 84.5866 211.633C82.5515 216.993 81.5617 222.631 81.024 228.321C80.4904 233.971 80.3104 239.65 79.714 245.294C79.1023 251.083 77.8973 256.744 76.5266 262.395L76.1997 263.735C74.9594 268.795 73.6793 273.856 73.0417 279.036C72.7014 281.803 72.4966 284.608 72.5429 287.397C72.5894 290.203 73.0301 292.947 73.3857 295.723C73.5219 296.786 72.4757 297.674 71.5396 297.815C70.463 297.977 69.538 297.289 69.2034 296.289C68.1602 293.17 67.9707 289.722 68.0034 286.449C68.0364 283.125 68.4604 279.823 69.057 276.557C70.2304 270.133 72.0411 263.841 73.5559 257.493C74.8909 251.898 75.7869 246.294 76.2699 240.562C76.7712 234.616 77.0714 228.649 77.986 222.746C78.8888 216.917 80.5873 211.35 83.149 206.036C85.4814 201.197 88.3888 196.643 91.437 192.228C95.1386 186.868 99.204 181.767 103.748 177.119C103.34 177.102 102.921 176.97 102.536 176.73C101.359 175.995 100.81 174.557 100.641 173.245C100.247 170.175 100.342 166.969 101.131 163.968C102.405 159.125 105.709 154.822 110.499 153.077C111.732 152.628 113.042 152.464 114.349 152.431C115.588 152.4 116.942 152.562 118.138 152.169C120.042 151.543 120.859 149.3 121.574 147.599L121.606 147.521C122.523 145.354 123.623 143.497 125.609 142.144C127.727 140.7 130.381 140.043 132.881 139.619ZM187.07 148.189C188.784 147.594 190.927 148.134 192.603 148.653C194.47 149.233 196.195 150.299 197.674 151.566C199.235 152.901 200.525 154.551 201.436 156.393L201.523 156.571C202.356 158.28 203.303 160.626 202.884 162.504C202.872 162.557 202.858 162.609 202.842 162.658C206.243 164.333 209.383 166.43 212.118 169.089C215.302 172.184 217.998 175.706 220.28 179.511C229.342 194.624 230.937 212.775 232.007 230.01L232.274 234.381C232.855 243.817 233.535 253.231 235.302 262.538L235.431 263.21C237.319 272.953 240.022 282.772 239.749 292.767C239.666 295.762 235.242 295.742 235.114 292.767C234.631 281.571 232.019 270.761 230.251 259.741C227.139 240.351 228.698 220.362 224.289 201.166C222.559 193.633 219.878 186.326 216.051 179.602C214.16 176.281 211.997 173.071 209.463 170.205C207.283 167.739 205.017 165.366 202.469 163.293C201.655 164.109 200.029 163.693 199.604 162.504C199.312 161.687 199.397 160.731 199.209 159.875C199.035 159.081 198.796 158.293 198.476 157.545C197.839 156.054 196.905 154.622 195.826 153.415C194.66 152.11 193.321 151.027 191.822 150.132C190.312 149.231 188.662 148.962 187.07 148.303C187.016 148.281 187.011 148.209 187.07 148.189ZM193.729 251.813C193.731 251.734 193.824 251.697 193.881 251.75C194.482 252.303 194.845 253.097 195.287 253.777C195.797 254.561 196.333 255.33 196.894 256.079C198.019 257.578 199.272 258.992 200.534 260.377C201.709 261.665 202.96 262.898 204.258 264.061C205.665 265.322 207.241 266.446 208.519 267.841C211.186 270.753 211.617 274.749 212.179 278.501L212.241 278.907C212.584 281.133 212.892 283.366 213.169 285.602C213.303 286.69 213.438 287.778 213.548 288.869L213.581 289.214C213.679 290.282 213.706 291.365 213.093 292.297C212.437 293.295 210.946 293.645 210.059 292.688C208.535 291.044 208.821 288.125 208.623 286.01C208.459 284.262 208.273 282.515 208.065 280.771L207.96 279.9C207.715 277.916 207.516 275.893 207.062 273.944C206.662 272.227 205.9 270.931 204.65 269.688C203.39 268.435 202.081 267.266 200.919 265.917C199.686 264.486 198.573 262.952 197.571 261.35C196.714 259.981 196.027 258.491 195.397 257.002L195.293 256.754C194.684 255.302 193.681 253.412 193.729 251.813ZM215.724 189.455C215.737 189.253 216.037 189.249 216.041 189.455C216.079 191.197 216.115 192.938 216.151 194.68C216.442 208.714 216.263 222.781 217.67 236.767C218.334 243.361 219.556 249.859 220.971 256.329C221.695 259.64 222.454 262.943 223.175 266.254C223.879 269.481 224.633 272.724 225.19 275.981C225.738 279.182 226.229 282.408 226.45 285.65L226.477 286.073C226.572 287.644 227.024 289.954 226.16 291.346C225.223 292.854 223.43 292.881 222.426 291.442C221.483 290.09 221.718 287.686 221.551 286.073C221.382 284.431 221.203 282.787 221 281.148C220.603 277.95 220.081 274.761 219.537 271.585C218.406 264.972 216.764 258.443 215.553 251.841C214.311 245.076 213.428 238.262 213.391 231.374C213.354 224.428 214.089 217.495 214.46 210.564C214.837 203.524 215.265 196.49 215.724 189.455ZM149.454 145.804C149.83 144.535 151.16 143.742 152.456 144.099C153.645 144.425 154.626 145.868 154.161 147.103C153.654 148.45 152.768 149.599 152.021 150.823C151.331 151.954 150.325 152.845 149.622 153.956L150.396 154.792C150.784 155.208 151.172 155.623 151.565 156.03L152.916 157.43C153.969 158.518 155.027 159.6 156.116 160.65C159.317 163.739 162.569 166.726 166.154 169.372C166.97 169.974 167.792 170.572 168.638 171.133L168.953 171.342C169.533 171.722 170.18 172.095 170.881 172.031C172.584 171.874 174.122 170.065 175.292 168.939L175.354 168.881C178.253 166.121 180.938 163.103 183.286 159.858C183.807 159.137 184.312 158.404 184.803 157.662C183.668 156.336 183.939 153.747 183.877 152.139C183.833 151.008 183.829 149.877 183.823 148.745L183.82 148.517C183.806 147.784 183.773 147.082 184.248 146.479C184.276 146.444 184.333 146.445 184.368 146.464C185.019 146.805 185.22 147.376 185.498 148.017L185.527 148.083C185.865 148.852 186.188 149.629 186.516 150.402C186.859 151.212 187.173 152.034 187.492 152.854C187.64 153.235 187.782 153.618 187.92 154.002C188.004 154.248 188.091 154.493 188.181 154.737L188.202 154.756C188.32 154.856 188.421 154.962 188.507 155.072C188.87 155.253 189.159 155.585 189.294 156.071C189.589 157.13 188.979 157.994 188.435 158.834C186.225 162.25 183.706 165.504 180.906 168.457C179.515 169.923 178.052 171.324 176.529 172.653L176.262 172.884C174.894 174.06 173.409 175.174 171.581 175.45C169.443 175.772 167.702 174.708 166.065 173.482L165.902 173.359C164.35 172.184 162.829 170.967 161.356 169.695C158.352 167.1 155.494 164.314 152.957 161.258C150.49 158.285 148.052 154.961 146.531 151.384C146.438 151.166 146.682 150.938 146.873 151.12C147.616 151.827 148.33 152.573 149.037 153.328C149.056 152.217 148.851 151.095 148.965 149.976C149.105 148.616 149.064 147.114 149.454 145.804Z" fill="black"/>
<path fill-rule="evenodd" clip-rule="evenodd" d="M199.092 98.0192C198.59 91.5214 199.368 84.7109 196.864 78.5348C192.497 68.2875 180.253 64.8708 170.76 60.9695C166.958 59.8454 154.161 59.6882 149.709 58.2005C139.631 54.8333 137.223 50.8213 129.216 57.2326C127.864 58.3278 127.019 59.5181 126.402 61.1444L126.427 61.1514C126.251 61.8294 126.44 62.506 126.837 63.0227C123.365 66.573 121.912 71.8956 123.693 76.6216C129.507 88.9199 129.233 95.5696 127.36 108.791C124.914 121.134 130.504 125.642 139.76 132.358C139.384 133.089 139.305 134.061 139.797 134.706C150.501 149.754 170.684 156.939 187.977 149.301C194.996 146.175 198.13 138.697 199.919 131.949C202.002 124.394 202.642 116.432 200.946 108.736C200.262 105.176 199.371 101.642 199.092 98.0192Z" fill="white"/>
<path fill-rule="evenodd" clip-rule="evenodd" d="M137.347 26.0292C138.647 25.834 139.628 26.6405 140.095 27.7771L140.119 27.8383C140.269 28.2251 140.436 28.6013 140.616 28.9712C143.867 27.3755 148.506 27.7855 150.564 31.017C152.032 33.325 151.137 36.0641 150.583 38.5115L150.22 40.1241C150.922 40.5713 151.452 41.3721 151.427 42.2013L151.424 42.2651L151.276 44.5139C151.745 44.0383 152.174 43.5205 152.556 42.9689C152.821 42.4849 153.106 42.0094 153.412 41.5486C155.214 38.837 159.26 41.1936 157.773 44.0975C157.487 44.6576 157.166 45.1881 156.822 45.6996C156.433 46.4541 156.114 47.2297 155.869 48.0265C156.573 48.333 157.113 49.0135 157.171 50.0407C157.304 52.4395 156.044 54.441 154.042 55.6985C153.452 56.0684 152.844 56.1403 152.292 56.0029C152.195 56.1339 152.098 56.265 152.005 56.3981C152.804 57.0469 153.524 57.7867 154.143 58.6067C156.006 58.3277 157.88 58.1967 159.754 58.1925C162.044 57.0702 164.787 57.0934 167.248 57.514C168.832 57.7846 170.354 58.3108 171.913 58.6891C173.556 59.0865 175.225 59.1013 176.888 59.3718C178.984 59.7121 180.822 60.6801 181.978 62.225C183.247 62.2631 184.582 62.783 185.69 63.4889C188.267 65.1332 190.83 66.8008 193.401 68.4556C194.388 69.091 194.757 70.1052 194.575 71.2365L194.563 71.3089L194.476 71.7781L194.68 72.0669C195.466 73.1784 196.323 74.3428 196.832 75.5697C197.774 76.9287 198.625 78.3532 199.38 79.8221C200.396 81.7961 201.235 83.8884 201.803 86.0358C201.944 86.5789 202.086 87.1263 202.179 87.6801C202.312 88.4621 202.107 89.0686 201.995 89.8189C201.856 90.77 201.805 91.7338 201.657 92.687C201.558 93.3189 201.021 93.6296 200.459 93.6465C200.671 95.2549 200.823 96.8738 200.968 98.4801C201.173 100.775 201.313 103.077 201.433 105.379C202.054 106.281 203.324 106.995 204.241 107.243C205.511 107.583 206.842 107.213 208.042 106.78C208.796 106.507 209.415 107.456 209.047 108.09C207.892 110.081 205.42 110.073 203.548 109.191C202.756 108.819 202.061 108.28 201.545 107.579C201.577 108.247 201.611 108.914 201.644 109.584L201.676 110.191C202.057 117.278 202.878 124.609 201.547 131.626C199.242 143.781 189.188 153.036 176.905 153.755C170.46 154.132 165.092 152.227 162.423 151.165C159.754 150.102 160.792 147.936 162.645 148.555C165.836 149.622 171.7 151.211 176.947 150.525C189.315 148.908 199.802 142.724 198.725 116.09C198.572 112.313 198.102 108.534 198 104.757C197.903 101.065 197.939 97.3705 197.776 93.6803L197.722 92.4212C197.658 90.9501 197.59 89.4721 197.48 87.9992C197.347 87.4286 197.237 86.8495 197.075 86.2894C196.633 84.7655 196.056 83.284 195.34 81.87C195.182 81.9905 195.004 82.0772 194.812 82.111C193.352 82.3731 191.983 82.2991 190.616 81.6904C189.978 81.4093 189.416 81.0352 188.892 80.5723C188.643 80.3547 188.476 80.1433 188.345 79.9235C187.684 79.9341 187.023 79.7354 186.609 79.2599C186.136 78.7179 186.058 78.158 186.243 77.6398L186.262 77.5881L186.216 77.5712C185.658 79.0147 184.547 80.2849 183.328 81.143C181.401 82.5041 178.99 82.8972 176.679 82.9331C174.127 82.9712 171.435 82.5781 168.917 82.1765C168.252 82.0708 167.59 81.9504 166.942 81.7876C166.916 81.813 166.891 81.8426 166.863 81.8679C164.702 83.937 161.662 84.4696 158.92 83.2882C157.335 82.6055 156.006 81.5065 154.832 80.2469C154.815 80.9063 154.781 81.5657 154.724 82.2188L154.7 82.4781C154.583 83.6944 154.358 84.9846 153.44 85.8624C151.954 87.2848 149.799 86.7142 148.086 85.7885C148.088 85.8329 148.088 85.8794 148.088 85.9258C148.551 87.4983 149.016 89.0729 149.48 90.6474L149.58 90.9828C149.918 92.1009 150.289 93.2203 150.391 94.3904C150.585 96.6265 149.098 98.8351 146.613 98.0848C145.31 97.6927 144.266 96.5965 143.264 95.7185L142.633 95.1724C144.266 100.513 145.399 106.044 145.504 111.618C145.511 111.92 145.251 112.148 144.963 112.159C144.292 112.186 143.569 112.053 142.893 111.785C142.855 111.782 142.817 111.78 142.777 111.774C141.623 111.607 140.552 111.191 139.608 110.576C139.825 111.267 139.923 112.009 139.866 112.784C139.851 112.972 139.557 113.038 139.515 112.831C138.97 110.149 135.832 108.122 133.128 108.635C130.225 109.187 128.087 111.685 127.563 114.528C127.002 117.582 128.077 121.114 130.069 123.47C130.986 124.556 132.192 125.463 133.625 125.691C134.28 125.795 134.96 125.759 135.596 125.573C135.866 125.493 136.12 125.381 136.378 125.275C136.754 125.123 137.193 125.1 137.548 124.939C138.353 124.578 139.162 125.319 138.754 126.146C138.399 126.867 138.08 127.353 137.491 127.725C137.968 128.308 138.402 129.12 138.562 129.337C139.382 130.445 140.214 131.491 141.148 132.503C142.099 133.53 143.136 134.469 144.232 135.337L144.693 135.702C145.75 136.54 146.669 137.316 147.414 138.518C148.002 139.467 147.241 140.754 146.14 140.74C142.697 140.691 140.193 137.664 138.41 135.02C138.156 134.642 137.918 134.243 137.696 133.833C137.616 133.962 137.527 134.082 137.428 134.192L137.624 134.72C138.207 136.276 135.695 137.292 134.966 135.84C134.436 134.788 133.821 133.786 133.137 132.839C132.733 132.782 132.338 132.537 132.118 132.22C131.563 131.415 130.94 130.601 130.413 129.743C130.122 129.466 129.822 129.2 129.516 128.94C129.427 129.018 129.336 129.096 129.249 129.179C128.865 130.056 128.39 130.857 127.8 131.611L127.674 131.772C126.545 133.196 125.074 134.653 123.254 135.001C122.698 135.107 122.163 134.416 122.656 133.974C123.93 132.829 125.436 132.049 126.611 130.77C127.189 130.14 127.721 129.446 128.178 128.719L128.282 128.551C128.358 128.426 128.436 128.302 128.516 128.175C127.986 127.813 127.456 127.45 126.925 127.086C125.466 128.334 123.565 128.905 121.95 129.938L121.79 130.043C120.33 131.02 118.792 128.86 119.962 127.674C121.252 126.372 122.329 124.819 123.472 123.372C122.935 122.381 122.68 121.21 122.585 120.027C122.548 119.692 122.518 119.356 122.489 119.021C121.669 119.034 120.845 118.753 120.148 118.269L119.884 118.081C119.037 118.351 118.147 118.482 117.296 118.459C115.293 118.4 114.473 116.111 115.726 114.663C117.004 113.184 119.242 112.86 121.014 113.579C121.071 113.549 121.13 113.518 121.187 113.486C121.103 113.097 121.122 112.744 121.218 112.434L121.19 112.246C120.8 111.647 120.544 110.964 120.447 110.242C120.37 109.671 120.385 109.104 120.518 108.539C120.562 108.352 120.653 108.157 120.723 107.961C120.579 107.597 120.494 107.221 120.468 106.843C120.428 106.795 120.388 106.745 120.35 106.692C119.47 105.457 119.648 103.968 120.485 102.969C120.489 102.905 120.494 102.841 120.503 102.778C120.454 102.668 120.409 102.556 120.368 102.444C119.55 101.618 118.95 100.625 119.062 99.3946C119.128 98.6705 119.425 98.0187 119.875 97.5315C119.795 97.2952 119.788 97.0215 119.885 96.7931C119.166 94.8812 119.257 92.5785 119.774 90.4403C119.66 90.1148 119.601 89.7619 119.613 89.3878C119.673 87.8005 121.046 86.3422 122.673 86.3612C122.868 86.3629 123.052 86.3885 123.228 86.4259L123.23 86.3881C123.293 85.9117 123.424 85.4714 123.615 85.0764C123.521 85.0424 123.434 84.9936 123.358 84.9287C122.315 85.485 121.212 85.9102 120.056 86.2C119.205 86.413 118.334 85.4461 118.863 84.6476C119.108 84.2771 119.379 83.9444 119.67 83.6405C119.256 83.6428 118.835 83.671 118.409 83.7257C117.644 83.825 116.791 83.303 116.294 82.5971C115.678 83.1973 115.059 83.7954 114.44 84.3936C112.872 85.9132 110.504 84.7951 110.256 82.7915C109.79 82.6668 109.354 82.4555 108.972 82.1532C106.5 83.2269 103.84 83.8166 101.121 83.9286C99.1691 84.0089 98.0283 81.7348 98.9409 80.1285C99.5536 79.0506 100.314 78.0826 101.191 77.2415C99.8304 77.6578 98.4254 77.9579 96.9909 78.1503C96.2156 78.2538 95.1191 77.6113 94.8085 76.8991C93.6212 74.16 93.7226 71.3046 95.0895 68.6395C95.1424 68.5338 95.2015 68.4324 95.2585 68.3309C95.4001 67.978 95.5543 67.6293 95.7212 67.2869C94.0395 65.5327 93.8938 62.9246 94.8001 60.7414C94.4367 60.1517 94.2973 59.4415 94.5445 58.799C95.248 56.9497 96.2621 55.242 97.5423 53.7752C97.4198 53.5385 97.3121 53.287 97.2212 53.0165C96.5008 50.829 97.3353 48.1893 99.0191 46.6654C100.078 45.7059 101.294 45.131 102.594 44.7633C103.141 43.7953 103.844 42.9224 104.664 42.1869C104.696 42.1172 104.728 42.0474 104.763 41.9777C106.04 39.5725 108.363 38.2833 110.854 37.9853C110.952 37.0448 111.585 36.1465 112.506 35.8549C112.76 35.0412 113.138 34.2634 113.658 33.5575C114.475 32.4458 115.834 31.9216 117.114 32.6508C117.816 33.0502 118.487 33.5089 119.117 34.0161C119.4 33.8834 119.72 33.7976 120.082 33.7702L120.173 33.7646L122.256 33.6589C123.129 33.2722 123.999 32.8664 124.872 32.4711C125.396 32.0379 125.981 31.6765 126.619 31.408C127.342 31.1058 128.081 30.9346 128.823 30.8776C129.425 30.681 130.031 30.5077 130.648 30.3724C132.097 30.0554 133.614 29.8779 135.118 29.8927C135.149 29.5032 135.164 29.109 135.162 28.7102L135.159 28.5104C135.125 27.2318 136.145 26.2109 137.347 26.0292ZM135.887 128.333C135.68 128.378 135.471 128.414 135.262 128.439C135.325 128.595 135.389 128.752 135.45 128.908C135.619 129.003 135.79 129.094 135.961 129.179C135.911 128.891 135.881 128.602 135.887 128.333ZM125.033 125.107L124.893 125.365C124.87 125.408 124.847 125.449 124.825 125.491C125.123 125.467 125.423 125.474 125.719 125.508L125.718 125.476C125.68 125.463 125.642 125.451 125.606 125.434C125.402 125.335 125.212 125.226 125.033 125.107ZM130.899 113.302C132.769 113.411 134.352 113.698 136.052 114.516L136.198 114.587C137.7 115.333 140.185 116.711 139.975 118.687C139.916 119.249 139.509 119.841 138.866 119.797C137.106 119.676 136.101 117.901 134.909 116.794C133.707 115.678 132.23 114.53 130.775 113.763C130.569 113.655 130.65 113.313 130.874 113.302L130.899 113.302ZM122.423 87.2658C121.975 87.2806 122.125 87.716 122.356 87.3525C122.375 87.3229 122.398 87.2933 122.423 87.2658ZM146.6 58.2005C142.358 58.3121 138.089 60.8176 134.911 63.3503C132.147 65.5536 129.76 68.1743 127.646 70.999C127.102 72.4058 126.635 73.8419 126.241 75.2886C125.981 76.2439 125.818 77.2098 125.601 78.1735L125.533 78.469C125.362 78.7886 125.235 79.1324 125.143 79.4877C125.528 79.874 126.028 80.1507 126.578 80.282C126.755 80.3242 126.902 80.4157 127.019 80.5371C127.461 79.7977 127.848 79.0174 128.074 78.1902L128.082 78.152C128.933 76.7573 129.858 75.4059 130.849 74.1008C133.582 70.4973 136.593 67.2129 140.212 64.4801C142.956 62.4089 146.024 60.7857 149.286 59.7311C148.488 59.0867 147.581 58.5769 146.6 58.2005Z" fill="black"/>
<path fill-rule="evenodd" clip-rule="evenodd" d="M179.673 136.732C178.253 136.153 176.986 135.186 176.059 133.951C175.737 133.521 175.654 133.068 175.721 132.653C175.797 132.187 176.073 131.765 176.449 131.481C176.826 131.197 177.298 131.056 177.754 131.128C178.151 131.19 178.545 131.407 178.858 131.858L178.923 131.948C179.474 132.693 180.191 133.305 181.009 133.699C181.797 134.079 182.679 134.256 183.591 134.153C185.329 133.957 186.526 133.017 187.799 131.74C187.957 131.579 188.115 131.413 188.273 131.244C188.373 131.091 188.512 130.992 188.667 130.941C188.838 130.883 189.032 130.887 189.21 130.949C189.381 131.009 189.534 131.122 189.637 131.273C189.734 131.416 189.79 131.593 189.772 131.797C189.655 133.12 188.964 134.3 187.982 135.227C186.891 136.257 185.445 136.969 184.084 137.219C182.585 137.494 181.057 137.297 179.673 136.732ZM184.792 116.324C186.387 117.294 188.818 119.557 187.102 121.962C185.081 124.082 182.173 121.651 180.74 120.551C179.411 119.699 177.917 121.891 179.15 122.886C189.507 130.557 193.711 116.578 185.599 115.184C184.705 115.03 184.374 116.024 184.792 116.324ZM166.232 107.401C166.408 105.212 169.74 104.715 170.072 106.881C170.368 108.821 170.019 110.604 169.145 112.35C168.311 114.019 166.213 113.241 166.054 111.721C165.841 109.684 166.122 108.763 166.232 107.401ZM191.597 106.432C192.062 105.823 192.733 105.408 193.536 105.643C196.047 106.377 195.307 109.943 194.425 111.679C193.946 112.621 192.397 112.86 191.697 112.03C190.556 110.677 190.01 107.974 191.461 106.641C191.5 106.572 191.544 106.502 191.597 106.432ZM169.11 97.8235L169.507 97.754C170.734 97.5417 172.259 97.3378 173.127 98.3246C173.588 98.8479 173.746 99.8205 173.127 100.321C172.039 101.203 170.835 100.861 169.531 100.936C168.456 100.998 167.423 101.175 166.388 101.472C164.116 102.121 162.265 103.307 160.325 104.609C160.071 104.779 159.811 104.454 159.932 104.216C161.052 102.021 163.222 100.219 165.396 99.1197C166.557 98.5332 167.826 98.0467 169.11 97.8235ZM189.308 96.8405L189.612 96.9026C192.916 97.5934 197.208 98.9734 198.772 102.22C198.832 102.679 198.769 102.777 198.718 102.841L198.701 102.863C198.658 102.918 198.625 102.993 198.426 103.056C198.371 103.043 198.315 103.029 198.258 103.014C197.541 102.826 196.974 102.567 196.425 102.298L195.829 102.005C195.138 101.666 194.441 101.339 193.702 101.098C192.126 100.584 190.504 100.221 188.858 100.028C188.501 99.9858 188.157 99.8653 187.886 99.6588C187.629 99.4627 187.432 99.1913 187.342 98.8306C187.226 98.3637 187.26 98.0102 187.51 97.589C187.698 97.2727 187.968 97.0535 188.277 96.9276C188.592 96.7992 188.951 96.7689 189.308 96.8405Z" fill="black"/>
<path d="M161.843 149.853C161.604 149.853 161.33 149.711 161.093 149.649C160.833 149.58 160.588 149.516 160.343 149.399C160.017 149.243 159.637 149.18 159.32 149.012C158.862 148.77 158.281 148.615 157.779 148.515C156.363 148.231 155.167 147.285 153.937 146.582C153.607 146.394 153.248 146.262 152.942 146.034C152.225 145.501 151.532 144.924 150.755 144.473C150.266 144.19 149.831 143.809 149.487 143.359C149.245 143.043 148.861 142.817 148.648 142.488C148.591 142.4 148.471 142.358 148.408 142.261C148.314 142.114 148.17 141.972 148.045 141.852C147.77 141.588 147.543 141.275 147.297 140.988C147.129 140.792 146.946 140.597 146.794 140.387C146.719 140.282 146.583 140.206 146.521 140.099C146.378 139.848 145.938 139.69 145.703 139.533" stroke="black" stroke-width="3" stroke-linecap="round"/>
<path fill-rule="evenodd" clip-rule="evenodd" d="M201.019 110.406C200.422 112.033 199.512 113.726 198.4 115.095C193.902 118.906 189.53 116.796 187.311 111.631C186.467 107.981 188.707 104.049 191.079 101.364C194.506 97.9276 200.098 99.7308 201.674 103.815C201.77 104.345 201.828 104.873 201.855 105.399C201.823 107.109 201.617 108.57 201.019 110.195M157.777 107.126C163.703 100.074 174.791 99.6968 174.508 110.551C173.235 124.289 151.797 120.917 157.777 107.126ZM202.883 101.243C202.675 100.891 202.445 100.551 202.193 100.225C202.1 100.17 202.047 99.6784 201.705 99.6421C197.136 94.5995 189.109 97.4605 186.209 102.485C185.679 103.12 185.247 103.864 184.929 104.65C182.071 104.126 178.74 104.228 176.082 105.307C173.446 98.4232 165.468 97.8086 160.21 100.75C156.94 102.359 154.819 105.729 151.639 107.58C144.162 108.118 136.138 106.442 128.797 108.318C123.007 109.522 127.847 112.455 128.818 110.498C135.74 108.452 143.94 110.181 151.127 109.72C151.874 110.985 153.307 112.019 154.735 111.975C156.278 125.654 176.218 123.386 176.906 111.226C177.686 109.992 178.656 108.811 180.045 108.042C180.577 107.932 181.091 107.789 181.56 107.567C182.362 107.454 183.599 107.794 184.337 108.463C186.866 123.641 201.433 121.873 204.037 108.576C204.089 108.524 204.233 108.325 204.345 108.007C205.236 106.829 207.417 106.39 207.069 104.401C206.758 102.41 204.246 102.434 202.883 101.243Z" fill="black"/>
</svg>
