<svg width="26" height="26" viewBox="0 0 26 26" fill="none" xmlns="http://www.w3.org/2000/svg">
<path fill-rule="evenodd" clip-rule="evenodd" d="M5.01652 3.76239C5.01652 1.68448 6.701 0 8.77891 0H16.3037C18.3816 0 20.0661 1.68448 20.0661 3.76239V5.14196C22.9283 5.72296 25.0826 8.25348 25.0826 11.2872V18.812C25.0826 22.2751 22.2751 25.0826 18.812 25.0826H6.27065C2.80747 25.0826 0 22.2751 0 18.812V11.2872C0 8.25348 2.15429 5.72296 5.01652 5.14196V3.76239ZM7.52478 5.01652H17.5578V3.76239C17.5578 3.06975 16.9963 2.50826 16.3037 2.50826H8.77891C8.08627 2.50826 7.52478 3.06975 7.52478 3.76239V5.01652ZM6.27065 7.52478C4.19274 7.52478 2.50826 9.20926 2.50826 11.2872V18.812C2.50826 20.8899 4.19274 22.5743 6.27065 22.5743H18.812C20.8899 22.5743 22.5743 20.8899 22.5743 18.812V11.2872C22.5743 9.20926 20.8899 7.52478 18.812 7.52478H6.27065ZM12.5413 11.9142C10.8097 11.9142 9.40598 13.318 9.40598 15.0496C9.40598 16.7812 10.8097 18.1849 12.5413 18.1849C14.2729 18.1849 15.6766 16.7812 15.6766 15.0496C15.6766 13.318 14.2729 11.9142 12.5413 11.9142ZM6.89772 15.0496C6.89772 11.9327 9.42444 9.40598 12.5413 9.40598C15.6582 9.40598 18.1849 11.9327 18.1849 15.0496C18.1849 18.1664 15.6582 20.6931 12.5413 20.6931C9.42444 20.6931 6.89772 18.1664 6.89772 15.0496Z" fill="black"/>
</svg>
