<svg width="31" height="31" viewBox="0 0 31 31" fill="none" xmlns="http://www.w3.org/2000/svg">
<path fill-rule="evenodd" clip-rule="evenodd" d="M3.76239 2.50827C4.45503 2.50827 5.01652 3.06976 5.01652 3.7624V23.8285C5.01652 24.5211 5.57802 25.0826 6.27065 25.0826H26.3367C27.0294 25.0826 27.5909 25.6441 27.5909 26.3367C27.5909 27.0294 27.0294 27.5909 26.3367 27.5909H6.27065C4.19274 27.5909 2.50826 25.9064 2.50826 23.8285V3.7624C2.50826 3.06976 3.06976 2.50827 3.76239 2.50827ZM8.08325 6.48129C8.65956 6.09709 9.43821 6.25282 9.82241 6.82913L14.0486 13.1684H17.9759C18.3952 13.1684 18.7868 13.3779 19.0194 13.7268L22.006 18.2069L22.5494 15.8536C22.7052 15.1788 23.3786 14.758 24.0535 14.9138C24.7284 15.0696 25.1491 15.743 24.9933 16.4179L23.7963 21.6024C23.6405 22.2772 22.9671 22.698 22.2922 22.5422L17.1078 21.3453C16.433 21.1895 16.0122 20.5161 16.168 19.8412C16.3238 19.1663 16.9972 18.7455 17.6721 18.9013L19.7787 19.3877L17.3047 15.6766H13.3774C12.9581 15.6766 12.5665 15.4671 12.3339 15.1182L7.73541 8.22046C7.35121 7.64415 7.50694 6.8655 8.08325 6.48129Z" fill="black"/>
</svg>
  