<svg width="31" height="31" viewBox="0 0 31 31" fill="none" xmlns="http://www.w3.org/2000/svg">
<path fill-rule="evenodd" clip-rule="evenodd" d="M15.0495 5.01652C11.5864 5.01652 8.77889 7.82399 8.77889 11.2872C8.77889 12.8094 9.31972 14.2021 10.221 15.2883C10.797 15.9824 11.2872 16.9218 11.2872 18.0171V20.0661C11.2872 20.7587 11.8486 21.3202 12.5413 21.3202H17.5578C18.2504 21.3202 18.8119 20.7587 18.8119 20.0661V18.0171C18.8119 16.9218 19.3021 15.9824 19.8781 15.2883C20.7794 14.2021 21.3202 12.8094 21.3202 11.2872C21.3202 7.82399 18.5127 5.01652 15.0495 5.01652ZM6.27063 11.2872C6.27063 6.43872 10.2011 2.50826 15.0495 2.50826C19.898 2.50826 23.8285 6.43872 23.8285 11.2872C23.8285 13.4157 23.0693 15.3702 21.8084 16.8899C21.4732 17.2939 21.3202 17.6855 21.3202 18.0171V20.0661C21.3202 22.144 19.6357 23.8285 17.5578 23.8285H12.5413C10.4634 23.8285 8.77889 22.144 8.77889 20.0661V18.0171C8.77889 17.6855 8.62593 17.2939 8.29071 16.8899C7.02975 15.3702 6.27063 13.4157 6.27063 11.2872ZM10.033 26.3367C10.033 25.6441 10.5945 25.0826 11.2872 25.0826H18.8119C19.5046 25.0826 20.0661 25.6441 20.0661 26.3367C20.0661 27.0294 19.5046 27.5909 18.8119 27.5909H11.2872C10.5945 27.5909 10.033 27.0294 10.033 26.3367Z" fill="black"/>
</svg>
